<svg xmlns="http://www.w3.org/2000/svg" xmlns:xlink="http://www.w3.org/1999/xlink" width="500" zoomAndPan="magnify" viewBox="0 0 375 374.999991" height="500" preserveAspectRatio="xMidYMid meet" version="1.0"><defs><g/><clipPath id="2d5f693a79"><path d="M 60.035156 164 L 148.535156 164 L 148.535156 213.296875 L 60.035156 213.296875 Z M 60.035156 164 " clip-rule="nonzero"/></clipPath><clipPath id="e5bf3f9270"><path d="M 3 0.160156 L 88.476562 0.160156 L 88.476562 49.296875 L 3 49.296875 Z M 3 0.160156 " clip-rule="nonzero"/></clipPath><clipPath id="3c28d2572f"><rect x="0" width="89" y="0" height="50"/></clipPath><clipPath id="5201d9b559"><rect x="0" width="168" y="0" height="9"/></clipPath></defs><g clip-path="url(#2d5f693a79)"><g transform="matrix(1, 0, 0, 1, 60, 164)"><g clip-path="url(#3c28d2572f)"><path fill="#004aad" d="M 13.234375 42.496094 C 14.929688 44.007812 17.167969 44.761719 19.441406 44.730469 L 78.214844 43.675781 L 22.105469 42.765625 C 19.460938 42.726562 16.824219 42.320312 14.324219 41.445312 C 13.285156 41.085938 12.238281 40.632812 11.332031 40.074219 C 11.332031 40.074219 11.851562 41.269531 13.234375 42.496094 " fill-opacity="1" fill-rule="nonzero"/><path fill="#004aad" d="M 21.457031 15.367188 C 22.402344 11.71875 26.5 7.421875 26.5 7.421875 C 35.613281 4.113281 53.59375 3.886719 53.59375 3.886719 C 44.816406 2.671875 29.265625 3.101562 25.148438 6.679688 C 22.210938 9.230469 19.363281 13.964844 17.972656 16.464844 C 17.601562 17.132812 18.15625 17.929688 18.910156 17.816406 C 38.660156 14.820312 65.523438 15.402344 65.523438 15.402344 C 43.246094 11.847656 21.457031 15.367188 21.457031 15.367188 " fill-opacity="1" fill-rule="nonzero"/><path fill="#004aad" d="M 32.125 33.460938 C 35.996094 33.953125 46.617188 34.316406 49.992188 31.863281 C 49.992188 31.863281 38.179688 32.875 32.035156 31.457031 C 25.890625 30.039062 22.855469 39.289062 24.136719 40.773438 C 25.417969 42.257812 35.140625 41.785156 35.140625 41.785156 C 35.140625 41.785156 27.535156 41.246094 26.273438 39.355469 C 25.015625 37.464844 28.253906 32.964844 32.125 33.460938 " fill-opacity="1" fill-rule="nonzero"/><path fill="#004aad" d="M 10.207031 24.726562 C 10.207031 24.726562 8.316406 31.117188 13.714844 33.054688 C 19.117188 34.988281 25.238281 31.660156 25.238281 31.660156 C 25.238281 31.660156 16.777344 33.277344 14.109375 30.613281 C 11.445312 27.945312 12.894531 26.425781 12.894531 26.425781 C 12.894531 26.425781 16.066406 25.648438 18.972656 28.28125 C 21.875 30.917969 27.105469 28.417969 27.105469 28.417969 C 27.105469 28.417969 21.636719 27.609375 18.488281 25.042969 C 15.335938 22.476562 10.207031 24.726562 10.207031 24.726562 " fill-opacity="1" fill-rule="nonzero"/><g clip-path="url(#e5bf3f9270)"><path fill="#004aad" d="M 9.019531 46.578125 C 7.476562 46.566406 6.214844 45.339844 6.160156 43.796875 C 5.960938 37.828125 6.042969 29.226562 6.042969 29.226562 C 8.253906 25.597656 10.789062 22.972656 10.789062 22.972656 C 8.136719 18.5625 16.417969 17.886719 16.417969 17.886719 C 18.710938 12.257812 23.847656 6.226562 23.847656 6.226562 C 31.589844 0.648438 55.394531 1.34375 55.394531 1.34375 C 40.339844 -0.949219 25.621094 1.34375 22.652344 4.046875 C 19.679688 6.746094 15.496094 15.117188 15.496094 15.117188 C 15.496094 15.117188 10.632812 16.601562 8.878906 18.109375 C 7.121094 19.617188 7.730469 23.015625 7.730469 23.015625 C 5.300781 25.449219 4.128906 28.011719 4.128906 28.011719 L 3.140625 44.125 C 2.6875 48.988281 5.570312 49.347656 5.570312 49.347656 L 88.476562 47.277344 L 9.019531 46.578125 " fill-opacity="1" fill-rule="nonzero"/></g><path fill="#004aad" d="M 7.144531 20.453125 C 7.144531 20.453125 6.71875 18.417969 8.472656 17.398438 C 8.472656 17.398438 6.3125 17.59375 4.578125 18.179688 C 2.847656 18.761719 3.320312 15.679688 5.976562 15.703125 C 8.628906 15.726562 10.386719 16.152344 10.386719 16.152344 C 10.386719 16.152344 12.527344 14.984375 14.59375 14.441406 C 14.59375 14.441406 6.875 12.574219 3.453125 14.148438 C 0.0351562 15.726562 1.019531 20.675781 3.089844 21.214844 C 5.164062 21.757812 7.144531 20.453125 7.144531 20.453125 " fill-opacity="1" fill-rule="nonzero"/></g></g></g><g fill="#737373" fill-opacity="1"><g transform="translate(123.285869, 196.761373)"><g><path d="M 7 0 L -0.375 0 L 9.65625 -26.484375 L 17.21875 -26.484375 L 27.25 0 L 19.875 0 L 18.171875 -4.734375 L 8.703125 -4.734375 Z M 10.40625 -9.65625 L 16.46875 -9.65625 L 13.4375 -18.546875 Z M 10.40625 -9.65625 "/></g></g></g><g fill="#737373" fill-opacity="1"><g transform="translate(150.152189, 196.761373)"><g><path d="M 11.15625 -5.109375 C 12.5 -5.109375 14.015625 -5.359375 15.703125 -5.859375 L 15.703125 -20.0625 L 22.328125 -20.0625 L 22.328125 0 L 16.46875 0 L 16.078125 -1.890625 C 14.898438 -1.109375 13.6875 -0.535156 12.4375 -0.171875 C 11.1875 0.191406 10.128906 0.375 9.265625 0.375 L 7.5625 0.375 C 5.851562 0.375 4.476562 -0.140625 3.4375 -1.171875 C 2.40625 -2.203125 1.890625 -3.578125 1.890625 -5.296875 L 1.890625 -20.0625 L 8.515625 -20.0625 L 8.515625 -6.4375 C 8.515625 -6.050781 8.640625 -5.734375 8.890625 -5.484375 C 9.140625 -5.234375 9.457031 -5.109375 9.84375 -5.109375 Z M 11.15625 -5.109375 "/></g></g></g><g fill="#737373" fill-opacity="1"><g transform="translate(174.369716, 196.761373)"><g><path d="M 15.890625 0 C 13.441406 0.25 11.046875 0.375 8.703125 0.375 C 6.984375 0.375 5.609375 -0.140625 4.578125 -1.171875 C 3.546875 -2.203125 3.03125 -3.578125 3.03125 -5.296875 L 3.03125 -14.953125 L 0.75 -14.953125 L 0.75 -20.0625 L 3.03125 -20.0625 L 3.78125 -24.59375 L 9.65625 -24.59375 L 9.65625 -20.0625 L 14.375 -20.0625 L 14.375 -14.953125 L 9.65625 -14.953125 L 9.65625 -6.25 C 9.65625 -5.863281 9.78125 -5.546875 10.03125 -5.296875 C 10.28125 -5.046875 10.59375 -4.921875 10.96875 -4.921875 L 15.890625 -4.921875 Z M 15.890625 0 "/></g></g></g><g fill="#737373" fill-opacity="1"><g transform="translate(191.019267, 196.761373)"><g><path d="M 22.328125 -5.671875 C 22.328125 -3.785156 21.789062 -2.304688 20.71875 -1.234375 C 19.644531 -0.160156 18.160156 0.375 16.265625 0.375 L 7.5625 0.375 C 5.675781 0.375 4.195312 -0.160156 3.125 -1.234375 C 2.050781 -2.304688 1.515625 -3.785156 1.515625 -5.671875 L 1.515625 -14.375 C 1.515625 -16.269531 2.050781 -17.753906 3.125 -18.828125 C 4.195312 -19.898438 5.675781 -20.4375 7.5625 -20.4375 L 16.265625 -20.4375 C 18.160156 -20.4375 19.644531 -19.898438 20.71875 -18.828125 C 21.789062 -17.753906 22.328125 -16.269531 22.328125 -14.375 Z M 15.703125 -13.8125 C 15.703125 -14.820312 15.195312 -15.328125 14.1875 -15.328125 L 9.65625 -15.328125 C 8.644531 -15.328125 8.140625 -14.820312 8.140625 -13.8125 L 8.140625 -6.25 C 8.140625 -5.238281 8.644531 -4.734375 9.65625 -4.734375 L 14.1875 -4.734375 C 15.195312 -4.734375 15.703125 -5.238281 15.703125 -6.25 Z M 15.703125 -13.8125 "/></g></g></g><g fill="#004aad" fill-opacity="1"><g transform="translate(214.867894, 196.761373)"><g><path d="M 2.265625 -26.484375 L 18.171875 -26.484375 C 20.816406 -26.484375 22.738281 -25.882812 23.9375 -24.6875 C 25.132812 -23.488281 25.734375 -21.566406 25.734375 -18.921875 L 25.734375 -15.140625 C 25.734375 -12.484375 25.132812 -10.554688 23.9375 -9.359375 C 22.738281 -8.160156 20.816406 -7.5625 18.171875 -7.5625 L 9.078125 -7.5625 L 9.078125 0 L 2.265625 0 Z M 18.921875 -18.921875 C 18.921875 -20.429688 18.164062 -21.1875 16.65625 -21.1875 L 9.078125 -21.1875 L 9.078125 -12.859375 L 16.65625 -12.859375 C 18.164062 -12.859375 18.921875 -13.617188 18.921875 -15.140625 Z M 18.921875 -18.921875 "/></g></g></g><g fill="#004aad" fill-opacity="1"><g transform="translate(241.734214, 196.761373)"><g><path d="M 9.84375 -4.921875 C 11.175781 -4.921875 12.6875 -5.171875 14.375 -5.671875 L 14.375 -7.953125 L 8.890625 -7.953125 C 8.515625 -7.953125 8.195312 -7.820312 7.9375 -7.5625 C 7.6875 -7.3125 7.5625 -7 7.5625 -6.625 L 7.5625 -6.25 C 7.5625 -5.863281 7.6875 -5.546875 7.9375 -5.296875 C 8.195312 -5.046875 8.515625 -4.921875 8.890625 -4.921875 Z M 2.84375 -19.671875 C 7.457031 -20.179688 11.617188 -20.4375 15.328125 -20.4375 C 17.046875 -20.4375 18.421875 -19.914062 19.453125 -18.875 C 20.484375 -17.84375 21 -16.472656 21 -14.765625 L 21 0 L 15.140625 0 L 14.765625 -1.890625 C 13.578125 -1.109375 12.359375 -0.535156 11.109375 -0.171875 C 9.859375 0.191406 8.804688 0.375 7.953125 0.375 L 6.625 0.375 C 4.90625 0.375 3.53125 -0.140625 2.5 -1.171875 C 1.46875 -2.203125 0.953125 -3.578125 0.953125 -5.296875 L 0.953125 -7 C 0.953125 -8.71875 1.46875 -10.09375 2.5 -11.125 C 3.53125 -12.15625 4.90625 -12.671875 6.625 -12.671875 L 14.375 -12.671875 L 14.375 -14.1875 C 14.375 -14.570312 14.25 -14.890625 14 -15.140625 C 13.75 -15.390625 13.4375 -15.515625 13.0625 -15.515625 C 11.414062 -15.515625 9.601562 -15.4375 7.625 -15.28125 C 5.644531 -15.132812 4.050781 -15.023438 2.84375 -14.953125 Z M 2.84375 -19.671875 "/></g></g></g><g fill="#004aad" fill-opacity="1"><g transform="translate(264.248952, 196.761373)"><g><path d="M 13.4375 -14.5625 C 11.84375 -14.5625 10.203125 -14.1875 8.515625 -13.4375 L 8.515625 0 L 1.890625 0 L 1.890625 -20.0625 L 7.765625 -20.0625 L 8.140625 -17.59375 C 10.304688 -19.488281 12.578125 -20.4375 14.953125 -20.4375 L 16.65625 -20.4375 L 16.65625 -14.5625 Z M 13.4375 -14.5625 "/></g></g></g><g fill="#004aad" fill-opacity="1"><g transform="translate(281.655301, 196.761373)"><g><path d="M 19.671875 -0.375 C 14.960938 0.125 10.800781 0.375 7.1875 0.375 C 5.46875 0.375 4.09375 -0.140625 3.0625 -1.171875 C 2.03125 -2.203125 1.515625 -3.578125 1.515625 -5.296875 L 1.515625 -14 C 1.515625 -15.894531 2.050781 -17.378906 3.125 -18.453125 C 4.195312 -19.523438 5.675781 -20.0625 7.5625 -20.0625 L 19.671875 -20.0625 L 19.671875 -14.953125 L 9.65625 -14.953125 C 8.644531 -14.953125 8.140625 -14.445312 8.140625 -13.4375 L 8.140625 -6.0625 C 8.140625 -5.675781 8.265625 -5.359375 8.515625 -5.109375 C 8.765625 -4.859375 9.078125 -4.734375 9.453125 -4.734375 C 11.722656 -4.734375 15.128906 -4.921875 19.671875 -5.296875 Z M 19.671875 -0.375 "/></g></g></g><g transform="matrix(1, 0, 0, 1, 140, 199)"><g clip-path="url(#5201d9b559)"><g fill="#737373" fill-opacity="1"><g transform="translate(1.0844, 6.584999)"><g/></g></g><g fill="#737373" fill-opacity="1"><g transform="translate(7.188988, 6.584999)"><g><path d="M 4.328125 -0.09375 C 3.304688 0.0078125 2.367188 0.0625 1.515625 0.0625 C 1.078125 0.0625 0.757812 -0.0351562 0.5625 -0.234375 C 0.363281 -0.429688 0.265625 -0.75 0.265625 -1.1875 L 0.265625 -3.28125 C 0.265625 -3.738281 0.367188 -4.070312 0.578125 -4.28125 C 0.785156 -4.488281 1.117188 -4.59375 1.578125 -4.59375 L 3.9375 -4.59375 L 3.9375 -3.671875 L 1.84375 -3.671875 C 1.570312 -3.671875 1.4375 -3.539062 1.4375 -3.28125 L 1.4375 -1.1875 C 1.4375 -1.082031 1.46875 -1 1.53125 -0.9375 C 1.59375 -0.882812 1.671875 -0.859375 1.765625 -0.859375 C 2.273438 -0.859375 2.738281 -0.867188 3.15625 -0.890625 L 3.15625 -1.84375 L 2.296875 -1.84375 L 2.296875 -2.625 L 4.328125 -2.625 Z M 4.328125 -0.09375 "/></g></g></g><g fill="#737373" fill-opacity="1"><g transform="translate(15.914996, 6.584999)"><g><path d="M 4.03125 0 L 0.390625 0 L 0.390625 -4.59375 L 4.03125 -4.59375 L 4.03125 -3.671875 L 1.578125 -3.671875 L 1.578125 -2.78125 L 3.515625 -2.78125 L 3.515625 -1.875 L 1.578125 -1.875 L 1.578125 -0.921875 L 4.03125 -0.921875 Z M 4.03125 0 "/></g></g></g><g fill="#737373" fill-opacity="1"><g transform="translate(24.214696, 6.584999)"><g><path d="M 0.25 -0.953125 C 1.445312 -0.890625 2.257812 -0.859375 2.6875 -0.859375 C 2.789062 -0.859375 2.867188 -0.882812 2.921875 -0.9375 C 2.984375 -1 3.015625 -1.082031 3.015625 -1.1875 L 3.015625 -1.765625 L 1.515625 -1.765625 C 1.046875 -1.765625 0.707031 -1.867188 0.5 -2.078125 C 0.300781 -2.285156 0.203125 -2.617188 0.203125 -3.078125 L 0.203125 -3.28125 C 0.203125 -3.738281 0.300781 -4.070312 0.5 -4.28125 C 0.707031 -4.488281 1.046875 -4.59375 1.515625 -4.59375 L 3.8125 -4.59375 L 3.8125 -3.671875 L 1.765625 -3.671875 C 1.503906 -3.671875 1.375 -3.539062 1.375 -3.28125 L 1.375 -3.15625 C 1.375 -2.882812 1.503906 -2.75 1.765625 -2.75 L 2.953125 -2.75 C 3.378906 -2.75 3.691406 -2.648438 3.890625 -2.453125 C 4.097656 -2.253906 4.203125 -1.941406 4.203125 -1.515625 L 4.203125 -1.1875 C 4.203125 -0.75 4.097656 -0.429688 3.890625 -0.234375 C 3.691406 -0.0351562 3.378906 0.0625 2.953125 0.0625 C 2.734375 0.0625 2.5 0.0546875 2.25 0.046875 L 1.640625 0.03125 C 1.191406 0.0078125 0.726562 -0.0195312 0.25 -0.0625 Z M 0.25 -0.953125 "/></g></g></g><g fill="#737373" fill-opacity="1"><g transform="translate(32.74395, 6.584999)"><g><path d="M 2.625 0 L 1.4375 0 L 1.4375 -3.671875 L 0.0625 -3.671875 L 0.0625 -4.59375 L 4 -4.59375 L 4 -3.671875 L 2.625 -3.671875 Z M 2.625 0 "/></g></g></g><g fill="#737373" fill-opacity="1"><g transform="translate(40.945273, 6.584999)"><g><path d="M 2.5625 0 L 0.203125 0 L 0.203125 -0.921875 L 0.78125 -0.921875 L 0.78125 -3.671875 L 0.203125 -3.671875 L 0.203125 -4.59375 L 2.5625 -4.59375 L 2.5625 -3.671875 L 1.96875 -3.671875 L 1.96875 -0.921875 L 2.5625 -0.921875 Z M 2.5625 0 "/></g></g></g><g fill="#737373" fill-opacity="1"><g transform="translate(47.834865, 6.584999)"><g><path d="M 3.34375 -3.34375 C 3.34375 -3.601562 3.210938 -3.734375 2.953125 -3.734375 L 1.84375 -3.734375 C 1.570312 -3.734375 1.4375 -3.601562 1.4375 -3.34375 L 1.4375 -1.25 C 1.4375 -0.988281 1.570312 -0.859375 1.84375 -0.859375 L 2.953125 -0.859375 C 3.210938 -0.859375 3.34375 -0.988281 3.34375 -1.25 Z M 4.53125 -1.25 C 4.53125 -0.789062 4.425781 -0.457031 4.21875 -0.25 C 4.007812 -0.0390625 3.675781 0.0625 3.21875 0.0625 L 1.578125 0.0625 C 1.117188 0.0625 0.785156 -0.0390625 0.578125 -0.25 C 0.367188 -0.457031 0.265625 -0.789062 0.265625 -1.25 L 0.265625 -3.34375 C 0.265625 -3.800781 0.367188 -4.132812 0.578125 -4.34375 C 0.785156 -4.550781 1.117188 -4.65625 1.578125 -4.65625 L 3.21875 -4.65625 C 3.675781 -4.65625 4.007812 -4.550781 4.21875 -4.34375 C 4.425781 -4.132812 4.53125 -3.800781 4.53125 -3.34375 Z M 4.53125 -1.25 "/></g></g></g><g fill="#737373" fill-opacity="1"><g transform="translate(56.757634, 6.584999)"><g><path d="M 4.390625 0 L 3.15625 0 L 1.578125 -2.75 L 1.578125 0 L 0.390625 0 L 0.390625 -4.59375 L 1.640625 -4.59375 L 3.21875 -1.84375 L 3.21875 -4.59375 L 4.390625 -4.59375 Z M 4.390625 0 "/></g></g></g><g fill="#737373" fill-opacity="1"><g transform="translate(65.680404, 6.584999)"><g/></g></g><g fill="#737373" fill-opacity="1"><g transform="translate(71.782966, 6.584999)"><g><path d="M 1.21875 0 L -0.0625 0 L 1.671875 -4.59375 L 2.984375 -4.59375 L 4.71875 0 L 3.4375 0 L 3.15625 -0.8125 L 1.515625 -0.8125 Z M 1.796875 -1.671875 L 2.859375 -1.671875 L 2.328125 -3.21875 Z M 1.796875 -1.671875 "/></g></g></g><g fill="#737373" fill-opacity="1"><g transform="translate(80.574565, 6.584999)"><g><path d="M 3.34375 -4.59375 L 4.53125 -4.59375 L 4.53125 -1.25 C 4.53125 -0.789062 4.425781 -0.457031 4.21875 -0.25 C 4.007812 -0.0390625 3.675781 0.0625 3.21875 0.0625 L 1.703125 0.0625 C 1.242188 0.0625 0.910156 -0.0390625 0.703125 -0.25 C 0.492188 -0.457031 0.390625 -0.789062 0.390625 -1.25 L 0.390625 -4.59375 L 1.578125 -4.59375 L 1.578125 -1.25 C 1.578125 -0.988281 1.707031 -0.859375 1.96875 -0.859375 L 2.953125 -0.859375 C 3.210938 -0.859375 3.34375 -0.988281 3.34375 -1.25 Z M 3.34375 -4.59375 "/></g></g></g><g fill="#737373" fill-opacity="1"><g transform="translate(89.628503, 6.584999)"><g><path d="M 2.625 0 L 1.4375 0 L 1.4375 -3.671875 L 0.0625 -3.671875 L 0.0625 -4.59375 L 4 -4.59375 L 4 -3.671875 L 2.625 -3.671875 Z M 2.625 0 "/></g></g></g><g fill="#737373" fill-opacity="1"><g transform="translate(97.829827, 6.584999)"><g><path d="M 3.34375 -3.34375 C 3.34375 -3.601562 3.210938 -3.734375 2.953125 -3.734375 L 1.84375 -3.734375 C 1.570312 -3.734375 1.4375 -3.601562 1.4375 -3.34375 L 1.4375 -1.25 C 1.4375 -0.988281 1.570312 -0.859375 1.84375 -0.859375 L 2.953125 -0.859375 C 3.210938 -0.859375 3.34375 -0.988281 3.34375 -1.25 Z M 4.53125 -1.25 C 4.53125 -0.789062 4.425781 -0.457031 4.21875 -0.25 C 4.007812 -0.0390625 3.675781 0.0625 3.21875 0.0625 L 1.578125 0.0625 C 1.117188 0.0625 0.785156 -0.0390625 0.578125 -0.25 C 0.367188 -0.457031 0.265625 -0.789062 0.265625 -1.25 L 0.265625 -3.34375 C 0.265625 -3.800781 0.367188 -4.132812 0.578125 -4.34375 C 0.785156 -4.550781 1.117188 -4.65625 1.578125 -4.65625 L 3.21875 -4.65625 C 3.675781 -4.65625 4.007812 -4.550781 4.21875 -4.34375 C 4.425781 -4.132812 4.53125 -3.800781 4.53125 -3.34375 Z M 4.53125 -1.25 "/></g></g></g><g fill="#737373" fill-opacity="1"><g transform="translate(106.752596, 6.584999)"><g><path d="M 4.328125 -2.5625 L 3.40625 -0.921875 L 2.5 -0.921875 L 1.578125 -2.5625 L 1.578125 0 L 0.390625 0 L 0.390625 -4.59375 L 1.640625 -4.59375 L 2.953125 -2.171875 L 4.265625 -4.59375 L 5.515625 -4.59375 L 5.515625 0 L 4.328125 0 Z M 4.328125 -2.5625 "/></g></g></g><g fill="#737373" fill-opacity="1"><g transform="translate(116.790334, 6.584999)"><g><path d="M 3.34375 -3.34375 C 3.34375 -3.601562 3.210938 -3.734375 2.953125 -3.734375 L 1.84375 -3.734375 C 1.570312 -3.734375 1.4375 -3.601562 1.4375 -3.34375 L 1.4375 -1.25 C 1.4375 -0.988281 1.570312 -0.859375 1.84375 -0.859375 L 2.953125 -0.859375 C 3.210938 -0.859375 3.34375 -0.988281 3.34375 -1.25 Z M 4.53125 -1.25 C 4.53125 -0.789062 4.425781 -0.457031 4.21875 -0.25 C 4.007812 -0.0390625 3.675781 0.0625 3.21875 0.0625 L 1.578125 0.0625 C 1.117188 0.0625 0.785156 -0.0390625 0.578125 -0.25 C 0.367188 -0.457031 0.265625 -0.789062 0.265625 -1.25 L 0.265625 -3.34375 C 0.265625 -3.800781 0.367188 -4.132812 0.578125 -4.34375 C 0.785156 -4.550781 1.117188 -4.65625 1.578125 -4.65625 L 3.21875 -4.65625 C 3.675781 -4.65625 4.007812 -4.550781 4.21875 -4.34375 C 4.425781 -4.132812 4.53125 -3.800781 4.53125 -3.34375 Z M 4.53125 -1.25 "/></g></g></g><g fill="#737373" fill-opacity="1"><g transform="translate(125.713103, 6.584999)"><g><path d="M 0.390625 -4.59375 L 3.015625 -4.59375 C 3.441406 -4.59375 3.753906 -4.492188 3.953125 -4.296875 C 4.160156 -4.109375 4.265625 -3.8125 4.265625 -3.40625 C 4.265625 -3.144531 4.207031 -2.929688 4.09375 -2.765625 C 3.976562 -2.609375 3.835938 -2.492188 3.671875 -2.421875 C 4.023438 -2.328125 4.265625 -2.09375 4.390625 -1.71875 C 4.441406 -1.582031 4.46875 -1.425781 4.46875 -1.25 C 4.46875 -0.820312 4.363281 -0.503906 4.15625 -0.296875 C 3.957031 -0.0976562 3.644531 0 3.21875 0 L 0.390625 0 Z M 3.28125 -1.4375 C 3.28125 -1.707031 3.148438 -1.84375 2.890625 -1.84375 L 1.578125 -1.84375 L 1.578125 -0.921875 L 2.890625 -0.921875 C 3.148438 -0.921875 3.28125 -1.050781 3.28125 -1.3125 Z M 3.078125 -3.28125 C 3.078125 -3.539062 2.945312 -3.671875 2.6875 -3.671875 L 1.578125 -3.671875 L 1.578125 -2.75 L 2.6875 -2.75 C 2.945312 -2.75 3.078125 -2.882812 3.078125 -3.15625 Z M 3.078125 -3.28125 "/></g></g></g><g fill="#737373" fill-opacity="1"><g transform="translate(134.504703, 6.584999)"><g><path d="M 3.34375 -3.34375 C 3.34375 -3.601562 3.210938 -3.734375 2.953125 -3.734375 L 1.84375 -3.734375 C 1.570312 -3.734375 1.4375 -3.601562 1.4375 -3.34375 L 1.4375 -1.25 C 1.4375 -0.988281 1.570312 -0.859375 1.84375 -0.859375 L 2.953125 -0.859375 C 3.210938 -0.859375 3.34375 -0.988281 3.34375 -1.25 Z M 4.53125 -1.25 C 4.53125 -0.789062 4.425781 -0.457031 4.21875 -0.25 C 4.007812 -0.0390625 3.675781 0.0625 3.21875 0.0625 L 1.578125 0.0625 C 1.117188 0.0625 0.785156 -0.0390625 0.578125 -0.25 C 0.367188 -0.457031 0.265625 -0.789062 0.265625 -1.25 L 0.265625 -3.34375 C 0.265625 -3.800781 0.367188 -4.132812 0.578125 -4.34375 C 0.785156 -4.550781 1.117188 -4.65625 1.578125 -4.65625 L 3.21875 -4.65625 C 3.675781 -4.65625 4.007812 -4.550781 4.21875 -4.34375 C 4.425781 -4.132812 4.53125 -3.800781 4.53125 -3.34375 Z M 4.53125 -1.25 "/></g></g></g><g fill="#737373" fill-opacity="1"><g transform="translate(143.427472, 6.584999)"><g><path d="M 1.578125 -0.921875 L 3.96875 -0.921875 L 3.96875 0 L 0.390625 0 L 0.390625 -4.59375 L 1.578125 -4.59375 Z M 1.578125 -0.921875 "/></g></g></g><g fill="#737373" fill-opacity="1"><g transform="translate(151.595995, 6.584999)"><g><path d="M 2.5625 0 L 0.203125 0 L 0.203125 -0.921875 L 0.78125 -0.921875 L 0.78125 -3.671875 L 0.203125 -3.671875 L 0.203125 -4.59375 L 2.5625 -4.59375 L 2.5625 -3.671875 L 1.96875 -3.671875 L 1.96875 -0.921875 L 2.5625 -0.921875 Z M 2.5625 0 "/></g></g></g><g fill="#737373" fill-opacity="1"><g transform="translate(158.485588, 6.584999)"><g><path d="M 4.03125 0 L 0.390625 0 L 0.390625 -4.59375 L 4.03125 -4.59375 L 4.03125 -3.671875 L 1.578125 -3.671875 L 1.578125 -2.78125 L 3.515625 -2.78125 L 3.515625 -1.875 L 1.578125 -1.875 L 1.578125 -0.921875 L 4.03125 -0.921875 Z M 4.03125 0 "/></g></g></g></g></g></svg>