<svg xmlns="http://www.w3.org/2000/svg" xmlns:xlink="http://www.w3.org/1999/xlink" width="500" zoomAndPan="magnify" viewBox="0 0 375 374.999991" height="500" preserveAspectRatio="xMidYMid meet" version="1.0"><defs><g/><clipPath id="e2aff55cd4"><path d="M 109 163 L 196.894531 163 L 196.894531 212.382812 L 109 212.382812 Z M 109 163 " clip-rule="nonzero"/></clipPath><clipPath id="1835e98e34"><path d="M 2 0.441406 L 87.835938 0.441406 L 87.835938 49.382812 L 2 49.382812 Z M 2 0.441406 " clip-rule="nonzero"/></clipPath><clipPath id="737cfcd504"><path d="M 0.441406 13 L 14 13 L 14 22 L 0.441406 22 Z M 0.441406 13 " clip-rule="nonzero"/></clipPath><clipPath id="0d0de6948e"><rect x="0" width="88" y="0" height="50"/></clipPath><clipPath id="af55b33bae"><path d="M 0.359375 2 L 5 2 L 5 7 L 0.359375 7 Z M 0.359375 2 " clip-rule="nonzero"/></clipPath><clipPath id="f055bba83b"><rect x="0" width="65" y="0" height="10"/></clipPath></defs><g clip-path="url(#e2aff55cd4)"><g transform="matrix(1, 0, 0, 1, 109, 163)"><g clip-path="url(#0d0de6948e)"><path fill="#004aad" d="M 12.589844 42.585938 C 14.289062 44.09375 16.527344 44.851562 18.800781 44.816406 L 77.574219 43.765625 L 21.464844 42.851562 C 18.816406 42.816406 16.179688 42.40625 13.683594 41.535156 C 12.640625 41.171875 11.59375 40.71875 10.6875 40.164062 C 10.6875 40.164062 11.210938 41.359375 12.589844 42.585938 " fill-opacity="1" fill-rule="nonzero"/><path fill="#004aad" d="M 20.816406 15.453125 C 21.761719 11.808594 25.855469 7.507812 25.855469 7.507812 C 34.972656 4.199219 52.953125 3.976562 52.953125 3.976562 C 44.175781 2.761719 28.625 3.1875 24.507812 6.765625 C 21.566406 9.320312 18.71875 14.050781 17.332031 16.550781 C 16.960938 17.21875 17.515625 18.019531 18.269531 17.902344 C 38.019531 14.910156 64.882812 15.488281 64.882812 15.488281 C 42.601562 11.933594 20.816406 15.453125 20.816406 15.453125 " fill-opacity="1" fill-rule="nonzero"/><path fill="#004aad" d="M 31.484375 33.546875 C 35.355469 34.042969 45.976562 34.402344 49.351562 31.949219 C 49.351562 31.949219 37.535156 32.960938 31.394531 31.542969 C 25.25 30.125 22.210938 39.375 23.492188 40.859375 C 24.777344 42.347656 34.5 41.875 34.5 41.875 C 34.5 41.875 26.890625 41.332031 25.632812 39.441406 C 24.371094 37.550781 27.613281 33.050781 31.484375 33.546875 " fill-opacity="1" fill-rule="nonzero"/><path fill="#004aad" d="M 9.5625 24.816406 C 9.5625 24.816406 7.671875 31.207031 13.074219 33.140625 C 18.476562 35.078125 24.597656 31.746094 24.597656 31.746094 C 24.597656 31.746094 16.136719 33.367188 13.46875 30.699219 C 10.800781 28.03125 12.253906 26.515625 12.253906 26.515625 C 12.253906 26.515625 15.425781 25.738281 18.328125 28.371094 C 21.230469 31.003906 26.464844 28.503906 26.464844 28.503906 C 26.464844 28.503906 20.996094 27.695312 17.84375 25.128906 C 14.695312 22.566406 9.5625 24.816406 9.5625 24.816406 " fill-opacity="1" fill-rule="nonzero"/><g clip-path="url(#1835e98e34)"><path fill="#004aad" d="M 8.378906 46.664062 C 6.832031 46.652344 5.570312 45.429688 5.519531 43.882812 C 5.316406 37.914062 5.398438 29.316406 5.398438 29.316406 C 7.609375 25.6875 10.148438 23.058594 10.148438 23.058594 C 7.492188 18.648438 15.773438 17.972656 15.773438 17.972656 C 18.070312 12.347656 23.203125 6.316406 23.203125 6.316406 C 30.949219 0.734375 54.753906 1.433594 54.753906 1.433594 C 39.699219 -0.863281 24.980469 1.433594 22.007812 4.132812 C 19.039062 6.832031 14.851562 15.207031 14.851562 15.207031 C 14.851562 15.207031 9.992188 16.691406 8.234375 18.199219 C 6.480469 19.707031 7.085938 23.105469 7.085938 23.105469 C 4.65625 25.535156 3.488281 28.101562 3.488281 28.101562 L 2.496094 44.214844 C 2.046875 49.074219 4.925781 49.433594 4.925781 49.433594 L 87.835938 47.363281 L 8.378906 46.664062 " fill-opacity="1" fill-rule="nonzero"/></g><g clip-path="url(#737cfcd504)"><path fill="#004aad" d="M 6.503906 20.539062 C 6.503906 20.539062 6.074219 18.507812 7.832031 17.488281 C 7.832031 17.488281 5.671875 17.679688 3.9375 18.265625 C 2.203125 18.851562 2.675781 15.769531 5.332031 15.789062 C 7.988281 15.8125 9.742188 16.242188 9.742188 16.242188 C 9.742188 16.242188 11.882812 15.070312 13.953125 14.53125 C 13.953125 14.53125 6.234375 12.664062 2.8125 14.238281 C -0.609375 15.8125 0.375 20.765625 2.449219 21.304688 C 4.523438 21.84375 6.503906 20.539062 6.503906 20.539062 " fill-opacity="1" fill-rule="nonzero"/></g></g></g></g><g fill="#737373" fill-opacity="1"><g transform="translate(165.479466, 195.848951)"><g><path d="M 7 0 L -0.375 0 L 9.65625 -26.484375 L 17.21875 -26.484375 L 27.25 0 L 19.875 0 L 18.171875 -4.734375 L 8.703125 -4.734375 Z M 10.40625 -9.65625 L 16.46875 -9.65625 L 13.4375 -18.546875 Z M 10.40625 -9.65625 "/></g></g></g><g fill="#004aad" fill-opacity="1"><g transform="translate(192.350558, 195.848951)"><g><path d="M 2.265625 -26.484375 L 18.171875 -26.484375 C 20.816406 -26.484375 22.738281 -25.882812 23.9375 -24.6875 C 25.132812 -23.488281 25.734375 -21.566406 25.734375 -18.921875 L 25.734375 -15.140625 C 25.734375 -12.484375 25.132812 -10.554688 23.9375 -9.359375 C 22.738281 -8.160156 20.816406 -7.5625 18.171875 -7.5625 L 9.078125 -7.5625 L 9.078125 0 L 2.265625 0 Z M 18.921875 -18.921875 C 18.921875 -20.429688 18.164062 -21.1875 16.65625 -21.1875 L 9.078125 -21.1875 L 9.078125 -12.859375 L 16.65625 -12.859375 C 18.164062 -12.859375 18.921875 -13.617188 18.921875 -15.140625 Z M 18.921875 -18.921875 "/></g></g></g><g transform="matrix(1, 0, 0, 1, 123, 218)"><g clip-path="url(#f055bba83b)"><g clip-path="url(#af55b33bae)"><g fill="#737373" fill-opacity="1"><g transform="translate(0.370909, 6.745623)"><g><path d="M 0.390625 -4.59375 L 3.015625 -4.59375 C 3.441406 -4.59375 3.753906 -4.492188 3.953125 -4.296875 C 4.160156 -4.109375 4.265625 -3.8125 4.265625 -3.40625 C 4.265625 -3.144531 4.207031 -2.929688 4.09375 -2.765625 C 3.976562 -2.609375 3.835938 -2.492188 3.671875 -2.421875 C 4.023438 -2.328125 4.265625 -2.09375 4.390625 -1.71875 C 4.441406 -1.582031 4.46875 -1.425781 4.46875 -1.25 C 4.46875 -0.820312 4.363281 -0.503906 4.15625 -0.296875 C 3.957031 -0.0976562 3.644531 0 3.21875 0 L 0.390625 0 Z M 3.28125 -1.4375 C 3.28125 -1.707031 3.148438 -1.84375 2.890625 -1.84375 L 1.578125 -1.84375 L 1.578125 -0.921875 L 2.890625 -0.921875 C 3.148438 -0.921875 3.28125 -1.050781 3.28125 -1.3125 Z M 3.078125 -3.28125 C 3.078125 -3.539062 2.945312 -3.671875 2.6875 -3.671875 L 1.578125 -3.671875 L 1.578125 -2.75 L 2.6875 -2.75 C 2.945312 -2.75 3.078125 -2.882812 3.078125 -3.15625 Z M 3.078125 -3.28125 "/></g></g></g></g><g fill="#737373" fill-opacity="1"><g transform="translate(9.162509, 6.745623)"><g><path d="M -0.125 -4.59375 L 1.109375 -4.59375 L 2.203125 -2.359375 L 3.28125 -4.59375 L 4.53125 -4.59375 L 2.78125 -1.21875 L 2.78125 0 L 1.609375 0 L 1.609375 -1.21875 Z M -0.125 -4.59375 "/></g></g></g><g fill="#737373" fill-opacity="1"><g transform="translate(17.691763, 6.745623)"><g/></g></g><g fill="#737373" fill-opacity="1"><g transform="translate(23.794325, 6.745623)"><g><path d="M 3.34375 -3.34375 C 3.34375 -3.601562 3.210938 -3.734375 2.953125 -3.734375 L 1.84375 -3.734375 C 1.570312 -3.734375 1.4375 -3.601562 1.4375 -3.34375 L 1.4375 -1.25 C 1.4375 -0.988281 1.570312 -0.859375 1.84375 -0.859375 L 2.953125 -0.859375 C 3.210938 -0.859375 3.34375 -0.988281 3.34375 -1.25 Z M 4.53125 -1.25 C 4.53125 -0.789062 4.425781 -0.457031 4.21875 -0.25 C 4.007812 -0.0390625 3.675781 0.0625 3.21875 0.0625 L 1.578125 0.0625 C 1.117188 0.0625 0.785156 -0.0390625 0.578125 -0.25 C 0.367188 -0.457031 0.265625 -0.789062 0.265625 -1.25 L 0.265625 -3.34375 C 0.265625 -3.800781 0.367188 -4.132812 0.578125 -4.34375 C 0.785156 -4.550781 1.117188 -4.65625 1.578125 -4.65625 L 3.21875 -4.65625 C 3.675781 -4.65625 4.007812 -4.550781 4.21875 -4.34375 C 4.425781 -4.132812 4.53125 -3.800781 4.53125 -3.34375 Z M 4.53125 -1.25 "/></g></g></g><g fill="#737373" fill-opacity="1"><g transform="translate(32.717094, 6.745623)"><g><path d="M 0.25 -0.953125 C 1.445312 -0.890625 2.257812 -0.859375 2.6875 -0.859375 C 2.789062 -0.859375 2.867188 -0.882812 2.921875 -0.9375 C 2.984375 -1 3.015625 -1.082031 3.015625 -1.1875 L 3.015625 -1.765625 L 1.515625 -1.765625 C 1.046875 -1.765625 0.707031 -1.867188 0.5 -2.078125 C 0.300781 -2.285156 0.203125 -2.617188 0.203125 -3.078125 L 0.203125 -3.28125 C 0.203125 -3.738281 0.300781 -4.070312 0.5 -4.28125 C 0.707031 -4.488281 1.046875 -4.59375 1.515625 -4.59375 L 3.8125 -4.59375 L 3.8125 -3.671875 L 1.765625 -3.671875 C 1.503906 -3.671875 1.375 -3.539062 1.375 -3.28125 L 1.375 -3.15625 C 1.375 -2.882812 1.503906 -2.75 1.765625 -2.75 L 2.953125 -2.75 C 3.378906 -2.75 3.691406 -2.648438 3.890625 -2.453125 C 4.097656 -2.253906 4.203125 -1.941406 4.203125 -1.515625 L 4.203125 -1.1875 C 4.203125 -0.75 4.097656 -0.429688 3.890625 -0.234375 C 3.691406 -0.0351562 3.378906 0.0625 2.953125 0.0625 C 2.734375 0.0625 2.5 0.0546875 2.25 0.046875 L 1.640625 0.03125 C 1.191406 0.0078125 0.726562 -0.0195312 0.25 -0.0625 Z M 0.25 -0.953125 "/></g></g></g><g fill="#737373" fill-opacity="1"><g transform="translate(41.246348, 6.745623)"><g><path d="M 4.03125 0 L 0.390625 0 L 0.390625 -4.59375 L 4.03125 -4.59375 L 4.03125 -3.671875 L 1.578125 -3.671875 L 1.578125 -2.78125 L 3.515625 -2.78125 L 3.515625 -1.875 L 1.578125 -1.875 L 1.578125 -0.921875 L 4.03125 -0.921875 Z M 4.03125 0 "/></g></g></g><g fill="#737373" fill-opacity="1"><g transform="translate(49.546048, 6.745623)"><g><path d="M 2.5625 0 L 0.203125 0 L 0.203125 -0.921875 L 0.78125 -0.921875 L 0.78125 -3.671875 L 0.203125 -3.671875 L 0.203125 -4.59375 L 2.5625 -4.59375 L 2.5625 -3.671875 L 1.96875 -3.671875 L 1.96875 -0.921875 L 2.5625 -0.921875 Z M 2.5625 0 "/></g></g></g><g fill="#737373" fill-opacity="1"><g transform="translate(56.435641, 6.745623)"><g><path d="M 2.625 0 L 1.4375 0 L 1.4375 -3.671875 L 0.0625 -3.671875 L 0.0625 -4.59375 L 4 -4.59375 L 4 -3.671875 L 2.625 -3.671875 Z M 2.625 0 "/></g></g></g></g></g></svg>