<svg xmlns="http://www.w3.org/2000/svg" xmlns:xlink="http://www.w3.org/1999/xlink" width="500" zoomAndPan="magnify" viewBox="0 0 375 374.999991" height="500" preserveAspectRatio="xMidYMid meet" version="1.0"><defs><g/><clipPath id="24314e746f"><path d="M 0.519531 7 L 274.511719 7 L 274.511719 160.835938 L 0.519531 160.835938 Z M 0.519531 7 " clip-rule="nonzero"/></clipPath><clipPath id="a2eaeff1f7"><path d="M 6 0.480469 L 274.328125 0.480469 L 274.328125 153.835938 L 6 153.835938 Z M 6 0.480469 " clip-rule="nonzero"/></clipPath><clipPath id="a65464aedf"><path d="M 0.519531 41 L 43 41 L 43 67 L 0.519531 67 Z M 0.519531 41 " clip-rule="nonzero"/></clipPath><clipPath id="81917cc907"><rect x="0" width="275" y="0" height="154"/></clipPath><clipPath id="6c68b3d5d0"><path d="M 43 180 L 246 180 L 246 206.199219 L 43 206.199219 Z M 43 180 " clip-rule="nonzero"/></clipPath><clipPath id="ca764dfc68"><rect x="0" width="203" y="0" height="27"/></clipPath><clipPath id="4fe43e17dd"><rect x="0" width="346" y="0" height="207"/></clipPath></defs><g transform="matrix(1, 0, 0, 1, 11, 83)"><g clip-path="url(#4fe43e17dd)"><g clip-path="url(#24314e746f)"><g transform="matrix(1, 0, 0, 1, -0.000000000000001776, 7)"><g clip-path="url(#81917cc907)"><path fill="#004aad" d="M 38.515625 132.527344 C 43.835938 137.257812 50.855469 139.628906 57.972656 139.519531 L 242.167969 136.21875 L 66.324219 133.363281 C 58.03125 133.25 49.765625 131.96875 41.9375 129.234375 C 38.675781 128.097656 35.398438 126.679688 32.554688 124.9375 C 32.554688 124.9375 34.1875 128.679688 38.515625 132.527344 " fill-opacity="1" fill-rule="nonzero"/><path fill="#004aad" d="M 64.292969 47.496094 C 67.257812 36.070312 80.09375 22.597656 80.09375 22.597656 C 108.65625 12.230469 165.011719 11.527344 165.011719 11.527344 C 137.503906 7.714844 88.765625 9.054688 75.859375 20.269531 C 66.652344 28.273438 57.726562 43.101562 53.371094 50.9375 C 52.207031 53.03125 53.945312 55.535156 56.3125 55.175781 C 118.207031 45.789062 202.394531 47.609375 202.394531 47.609375 C 132.570312 36.464844 64.292969 47.496094 64.292969 47.496094 " fill-opacity="1" fill-rule="nonzero"/><path fill="#004aad" d="M 97.726562 104.199219 C 109.855469 105.753906 143.144531 106.878906 153.726562 99.191406 C 153.726562 99.191406 116.699219 102.367188 97.441406 97.921875 C 78.1875 93.480469 68.667969 122.464844 72.6875 127.121094 C 76.707031 131.777344 107.175781 130.296875 107.175781 130.296875 C 107.175781 130.296875 83.335938 128.601562 79.386719 122.679688 C 75.4375 116.753906 85.59375 102.648438 97.726562 104.199219 " fill-opacity="1" fill-rule="nonzero"/><path fill="#004aad" d="M 29.03125 76.835938 C 29.03125 76.835938 23.105469 96.867188 40.03125 102.929688 C 56.957031 108.996094 76.144531 98.558594 76.144531 98.558594 C 76.144531 98.558594 49.625 103.636719 41.265625 95.277344 C 32.910156 86.921875 37.457031 82.160156 37.457031 82.160156 C 37.457031 82.160156 47.402344 79.726562 56.5 87.976562 C 65.597656 96.230469 81.996094 88.402344 81.996094 88.402344 C 81.996094 88.402344 64.859375 85.863281 54.984375 77.820312 C 45.109375 69.78125 29.03125 76.835938 29.03125 76.835938 " fill-opacity="1" fill-rule="nonzero"/><g clip-path="url(#a2eaeff1f7)"><path fill="#004aad" d="M 25.316406 145.3125 C 20.472656 145.277344 16.515625 141.433594 16.355469 136.59375 C 15.722656 117.886719 15.980469 90.941406 15.980469 90.941406 C 22.910156 79.5625 30.863281 71.332031 30.863281 71.332031 C 22.542969 57.511719 48.496094 55.394531 48.496094 55.394531 C 55.6875 37.761719 71.78125 18.859375 71.78125 18.859375 C 96.050781 1.371094 170.652344 3.554688 170.652344 3.554688 C 123.46875 -3.636719 77.34375 3.554688 68.03125 12.019531 C 58.722656 20.484375 45.605469 46.71875 45.605469 46.71875 C 45.605469 46.71875 30.367188 51.375 24.867188 56.101562 C 19.367188 60.824219 21.269531 71.472656 21.269531 71.472656 C 13.65625 79.089844 9.988281 87.132812 9.988281 87.132812 L 6.882812 137.628906 C 5.472656 152.863281 14.5 153.992188 14.5 153.992188 L 274.328125 147.503906 L 25.316406 145.3125 " fill-opacity="1" fill-rule="nonzero"/></g><g clip-path="url(#a65464aedf)"><path fill="#004aad" d="M 19.4375 63.433594 C 19.4375 63.433594 18.097656 57.066406 23.597656 53.867188 C 23.597656 53.867188 16.828125 54.476562 11.398438 56.308594 C 5.964844 58.144531 7.445312 48.480469 15.769531 48.554688 C 24.09375 48.625 29.59375 49.964844 29.59375 49.964844 C 29.59375 49.964844 36.300781 46.300781 42.78125 44.601562 C 42.78125 44.601562 18.59375 38.75 7.871094 43.6875 C -2.847656 48.625 0.234375 64.140625 6.734375 65.832031 C 13.230469 67.523438 19.4375 63.433594 19.4375 63.433594 " fill-opacity="1" fill-rule="nonzero"/></g></g></g></g><g fill="#737373" fill-opacity="1"><g transform="translate(176.062731, 109.013254)"><g><path d="M 21.9375 0 L -1.1875 0 L 30.25 -83.03125 L 53.96875 -83.03125 L 85.40625 0 L 62.265625 0 L 56.9375 -14.828125 L 27.28125 -14.828125 Z M 32.625 -30.25 L 51.59375 -30.25 L 42.109375 -58.125 Z M 32.625 -30.25 "/></g></g></g><g fill="#004aad" fill-opacity="1"><g transform="translate(260.275765, 109.013254)"><g><path d="M 7.109375 -83.03125 L 56.9375 -83.03125 C 65.238281 -83.03125 71.265625 -81.148438 75.015625 -77.390625 C 78.773438 -73.640625 80.65625 -67.613281 80.65625 -59.3125 L 80.65625 -47.4375 C 80.65625 -39.132812 78.773438 -33.101562 75.015625 -29.34375 C 71.265625 -25.59375 65.238281 -23.71875 56.9375 -23.71875 L 28.46875 -23.71875 L 28.46875 0 L 7.109375 0 Z M 59.3125 -59.3125 C 59.3125 -64.050781 56.9375 -66.421875 52.1875 -66.421875 L 28.46875 -66.421875 L 28.46875 -40.328125 L 52.1875 -40.328125 C 56.9375 -40.328125 59.3125 -42.695312 59.3125 -47.4375 Z M 59.3125 -59.3125 "/></g></g></g><g clip-path="url(#6c68b3d5d0)"><g transform="matrix(1, 0, 0, 1, 43, 180)"><g clip-path="url(#ca764dfc68)"><g fill="#737373" fill-opacity="1"><g transform="translate(1.096034, 19.574332)"><g><path d="M 1.234375 -14.390625 L 9.453125 -14.390625 C 10.796875 -14.390625 11.78125 -14.082031 12.40625 -13.46875 C 13.039062 -12.863281 13.359375 -11.9375 13.359375 -10.6875 C 13.359375 -9.863281 13.179688 -9.195312 12.828125 -8.6875 C 12.472656 -8.175781 12.035156 -7.816406 11.515625 -7.609375 C 12.628906 -7.304688 13.382812 -6.566406 13.78125 -5.390625 C 13.914062 -4.960938 13.984375 -4.46875 13.984375 -3.90625 C 13.984375 -2.5625 13.664062 -1.570312 13.03125 -0.9375 C 12.40625 -0.3125 11.421875 0 10.078125 0 L 1.234375 0 Z M 10.28125 -4.53125 C 10.28125 -5.34375 9.867188 -5.75 9.046875 -5.75 L 4.9375 -5.75 L 4.9375 -2.875 L 9.046875 -2.875 C 9.867188 -2.875 10.28125 -3.285156 10.28125 -4.109375 Z M 9.671875 -10.28125 C 9.671875 -11.101562 9.257812 -11.515625 8.4375 -11.515625 L 4.9375 -11.515625 L 4.9375 -8.640625 L 8.4375 -8.640625 C 9.257812 -8.640625 9.671875 -9.050781 9.671875 -9.875 Z M 9.671875 -10.28125 "/></g></g></g><g fill="#737373" fill-opacity="1"><g transform="translate(28.648592, 19.574332)"><g><path d="M -0.40625 -14.390625 L 3.5 -14.390625 L 6.890625 -7.40625 L 10.28125 -14.390625 L 14.1875 -14.390625 L 8.734375 -3.796875 L 8.734375 0 L 5.03125 0 L 5.03125 -3.796875 Z M -0.40625 -14.390625 "/></g></g></g><g fill="#737373" fill-opacity="1"><g transform="translate(55.378968, 19.574332)"><g/></g></g><g fill="#737373" fill-opacity="1"><g transform="translate(74.504179, 19.574332)"><g><path d="M 10.484375 -10.484375 C 10.484375 -11.304688 10.070312 -11.71875 9.25 -11.71875 L 5.75 -11.71875 C 4.9375 -11.71875 4.53125 -11.304688 4.53125 -10.484375 L 4.53125 -3.90625 C 4.53125 -3.082031 4.9375 -2.671875 5.75 -2.671875 L 9.25 -2.671875 C 10.070312 -2.671875 10.484375 -3.082031 10.484375 -3.90625 Z M 14.1875 -3.90625 C 14.1875 -2.46875 13.859375 -1.421875 13.203125 -0.765625 C 12.554688 -0.117188 11.515625 0.203125 10.078125 0.203125 L 4.9375 0.203125 C 3.5 0.203125 2.453125 -0.117188 1.796875 -0.765625 C 1.148438 -1.421875 0.828125 -2.46875 0.828125 -3.90625 L 0.828125 -10.484375 C 0.828125 -11.921875 1.148438 -12.960938 1.796875 -13.609375 C 2.453125 -14.265625 3.5 -14.59375 4.9375 -14.59375 L 10.078125 -14.59375 C 11.515625 -14.59375 12.554688 -14.265625 13.203125 -13.609375 C 13.859375 -12.960938 14.1875 -11.921875 14.1875 -10.484375 Z M 14.1875 -3.90625 "/></g></g></g><g fill="#737373" fill-opacity="1"><g transform="translate(102.467818, 19.574332)"><g><path d="M 0.796875 -2.984375 C 4.554688 -2.773438 7.101562 -2.671875 8.4375 -2.671875 C 8.75 -2.671875 8.992188 -2.765625 9.171875 -2.953125 C 9.359375 -3.140625 9.453125 -3.390625 9.453125 -3.703125 L 9.453125 -5.546875 L 4.734375 -5.546875 C 3.285156 -5.546875 2.234375 -5.867188 1.578125 -6.515625 C 0.929688 -7.171875 0.609375 -8.222656 0.609375 -9.671875 L 0.609375 -10.28125 C 0.609375 -11.71875 0.929688 -12.757812 1.578125 -13.40625 C 2.234375 -14.0625 3.285156 -14.390625 4.734375 -14.390625 L 11.953125 -14.390625 L 11.953125 -11.515625 L 5.546875 -11.515625 C 4.722656 -11.515625 4.3125 -11.101562 4.3125 -10.28125 L 4.3125 -9.875 C 4.3125 -9.050781 4.722656 -8.640625 5.546875 -8.640625 L 9.25 -8.640625 C 10.59375 -8.640625 11.578125 -8.320312 12.203125 -7.6875 C 12.835938 -7.0625 13.15625 -6.078125 13.15625 -4.734375 L 13.15625 -3.703125 C 13.15625 -2.359375 12.835938 -1.367188 12.203125 -0.734375 C 11.578125 -0.109375 10.59375 0.203125 9.25 0.203125 C 8.550781 0.203125 7.8125 0.191406 7.03125 0.171875 L 5.140625 0.078125 C 3.742188 0.015625 2.296875 -0.078125 0.796875 -0.203125 Z M 0.796875 -2.984375 "/></g></g></g><g fill="#737373" fill-opacity="1"><g transform="translate(129.198193, 19.574332)"><g><path d="M 12.640625 0 L 1.234375 0 L 1.234375 -14.390625 L 12.640625 -14.390625 L 12.640625 -11.515625 L 4.9375 -11.515625 L 4.9375 -8.734375 L 11 -8.734375 L 11 -5.859375 L 4.9375 -5.859375 L 4.9375 -2.875 L 12.640625 -2.875 Z M 12.640625 0 "/></g></g></g><g fill="#737373" fill-opacity="1"><g transform="translate(155.209156, 19.574332)"><g><path d="M 8.015625 0 L 0.609375 0 L 0.609375 -2.875 L 2.46875 -2.875 L 2.46875 -11.515625 L 0.609375 -11.515625 L 0.609375 -14.390625 L 8.015625 -14.390625 L 8.015625 -11.515625 L 6.171875 -11.515625 L 6.171875 -2.875 L 8.015625 -2.875 Z M 8.015625 0 "/></g></g></g><g fill="#737373" fill-opacity="1"><g transform="translate(176.800891, 19.574332)"><g><path d="M 8.21875 0 L 4.53125 0 L 4.53125 -11.515625 L 0.203125 -11.515625 L 0.203125 -14.390625 L 12.546875 -14.390625 L 12.546875 -11.515625 L 8.21875 -11.515625 Z M 8.21875 0 "/></g></g></g></g></g></g></g></g></svg>