<svg xmlns="http://www.w3.org/2000/svg" xmlns:xlink="http://www.w3.org/1999/xlink" width="500" zoomAndPan="magnify" viewBox="0 0 375 374.999991" height="500" preserveAspectRatio="xMidYMid meet" version="1.0"><defs><g/><clipPath id="612eba1397"><path d="M 0.601562 5 L 221.078125 5 L 221.078125 128.867188 L 0.601562 128.867188 Z M 0.601562 5 " clip-rule="nonzero"/></clipPath><clipPath id="b9fbde9cdd"><path d="M 5 0.558594 L 220.929688 0.558594 L 220.929688 123.867188 L 5 123.867188 Z M 5 0.558594 " clip-rule="nonzero"/></clipPath><clipPath id="f5b990e0f5"><path d="M 0.601562 33 L 35 33 L 35 54 L 0.601562 54 Z M 0.601562 33 " clip-rule="nonzero"/></clipPath><clipPath id="4cc119ca8d"><rect x="0" width="222" y="0" height="124"/></clipPath><clipPath id="1a9f7cecf8"><path d="M 35 144 L 199 144 L 199 165.398438 L 35 165.398438 Z M 35 144 " clip-rule="nonzero"/></clipPath><clipPath id="8e3246231a"><rect x="0" width="164" y="0" height="22"/></clipPath><clipPath id="09d53dd5f6"><rect x="0" width="279" y="0" height="166"/></clipPath></defs><g transform="matrix(1, 0, 0, 1, 51, 113)"><g clip-path="url(#09d53dd5f6)"><g clip-path="url(#612eba1397)"><g transform="matrix(1, 0, 0, 1, 0, 5)"><g clip-path="url(#4cc119ca8d)"><path fill="#004aad" d="M 31.242188 106.726562 C 35.519531 110.535156 41.167969 112.4375 46.894531 112.351562 L 195.058594 109.699219 L 53.613281 107.398438 C 46.9375 107.308594 40.292969 106.277344 33.992188 104.078125 C 31.371094 103.164062 28.734375 102.023438 26.445312 100.621094 C 26.445312 100.621094 27.761719 103.632812 31.242188 106.726562 " fill-opacity="1" fill-rule="nonzero"/><path fill="#004aad" d="M 51.976562 38.328125 C 54.359375 29.136719 64.6875 18.300781 64.6875 18.300781 C 87.664062 9.960938 132.992188 9.394531 132.992188 9.394531 C 110.867188 6.328125 71.664062 7.40625 61.28125 16.429688 C 53.871094 22.867188 46.695312 34.792969 43.191406 41.09375 C 42.253906 42.78125 43.652344 44.792969 45.554688 44.503906 C 95.34375 36.953125 163.066406 38.417969 163.066406 38.417969 C 106.898438 29.453125 51.976562 38.328125 51.976562 38.328125 " fill-opacity="1" fill-rule="nonzero"/><path fill="#004aad" d="M 78.871094 83.941406 C 88.628906 85.191406 115.40625 86.097656 123.914062 79.914062 C 123.914062 79.914062 94.132812 82.464844 78.640625 78.890625 C 63.152344 75.316406 55.496094 98.632812 58.730469 102.378906 C 61.960938 106.125 86.472656 104.933594 86.472656 104.933594 C 86.472656 104.933594 67.296875 103.570312 64.117188 98.804688 C 60.941406 94.039062 69.109375 82.691406 78.871094 83.941406 " fill-opacity="1" fill-rule="nonzero"/><path fill="#004aad" d="M 23.609375 61.929688 C 23.609375 61.929688 18.84375 78.042969 32.460938 82.921875 C 46.078125 87.796875 61.507812 79.402344 61.507812 79.402344 C 61.507812 79.402344 40.175781 83.488281 33.453125 76.765625 C 26.730469 70.039062 30.390625 66.210938 30.390625 66.210938 C 30.390625 66.210938 38.390625 64.253906 45.707031 70.890625 C 53.027344 77.53125 66.21875 71.230469 66.21875 71.230469 C 66.21875 71.230469 52.429688 69.191406 44.488281 62.722656 C 36.546875 56.253906 23.609375 61.929688 23.609375 61.929688 " fill-opacity="1" fill-rule="nonzero"/><g clip-path="url(#b9fbde9cdd)"><path fill="#004aad" d="M 20.625 117.011719 C 16.726562 116.984375 13.546875 113.894531 13.414062 110 C 12.90625 94.949219 13.113281 73.273438 13.113281 73.273438 C 18.6875 64.125 25.085938 57.503906 25.085938 57.503906 C 18.390625 46.382812 39.269531 44.679688 39.269531 44.679688 C 45.054688 30.496094 58 15.292969 58 15.292969 C 77.523438 1.222656 137.53125 2.980469 137.53125 2.980469 C 99.578125 -2.804688 62.472656 2.980469 54.984375 9.789062 C 47.496094 16.597656 36.941406 37.703125 36.941406 37.703125 C 36.941406 37.703125 24.6875 41.445312 20.261719 45.25 C 15.839844 49.050781 17.371094 57.617188 17.371094 57.617188 C 11.242188 63.742188 8.292969 70.210938 8.292969 70.210938 L 5.796875 110.832031 C 4.660156 123.085938 11.921875 123.996094 11.921875 123.996094 L 220.929688 118.773438 L 20.625 117.011719 " fill-opacity="1" fill-rule="nonzero"/></g><g clip-path="url(#f5b990e0f5)"><path fill="#004aad" d="M 15.894531 51.148438 C 15.894531 51.148438 14.816406 46.027344 19.242188 43.453125 C 19.242188 43.453125 13.796875 43.945312 9.425781 45.417969 C 5.058594 46.894531 6.25 39.121094 12.945312 39.179688 C 19.640625 39.234375 24.066406 40.3125 24.066406 40.3125 C 24.066406 40.3125 29.460938 37.367188 34.671875 36 C 34.671875 36 15.214844 31.292969 6.589844 35.261719 C -2.03125 39.234375 0.449219 51.714844 5.675781 53.078125 C 10.902344 54.4375 15.894531 51.148438 15.894531 51.148438 " fill-opacity="1" fill-rule="nonzero"/></g></g></g></g><g fill="#737373" fill-opacity="1"><g transform="translate(141.884379, 87.181822)"><g><path d="M 17.65625 0 L -0.953125 0 L 24.328125 -66.78125 L 43.40625 -66.78125 L 68.6875 0 L 50.09375 0 L 45.796875 -11.921875 L 21.9375 -11.921875 Z M 26.234375 -24.328125 L 41.5 -24.328125 L 33.875 -46.75 Z M 26.234375 -24.328125 "/></g></g></g><g fill="#004aad" fill-opacity="1"><g transform="translate(209.625616, 87.181822)"><g><path d="M 5.71875 -66.78125 L 45.796875 -66.78125 C 52.472656 -66.78125 57.320312 -65.269531 60.34375 -62.25 C 63.363281 -59.226562 64.875 -54.378906 64.875 -47.703125 L 64.875 -38.15625 C 64.875 -31.476562 63.363281 -26.628906 60.34375 -23.609375 C 57.320312 -20.585938 52.472656 -19.078125 45.796875 -19.078125 L 22.890625 -19.078125 L 22.890625 0 L 5.71875 0 Z M 47.703125 -47.703125 C 47.703125 -51.515625 45.796875 -53.421875 41.984375 -53.421875 L 22.890625 -53.421875 L 22.890625 -32.4375 L 41.984375 -32.4375 C 45.796875 -32.4375 47.703125 -34.34375 47.703125 -38.15625 Z M 47.703125 -47.703125 "/></g></g></g><g clip-path="url(#1a9f7cecf8)"><g transform="matrix(1, 0, 0, 1, 35, 144)"><g clip-path="url(#8e3246231a)"><g fill="#737373" fill-opacity="1"><g transform="translate(0.72994, 16.029445)"><g><path d="M 1 -11.578125 L 7.609375 -11.578125 C 8.691406 -11.578125 9.484375 -11.332031 9.984375 -10.84375 C 10.492188 -10.351562 10.75 -9.609375 10.75 -8.609375 C 10.75 -7.941406 10.601562 -7.398438 10.3125 -6.984375 C 10.03125 -6.578125 9.679688 -6.289062 9.265625 -6.125 C 10.160156 -5.882812 10.769531 -5.285156 11.09375 -4.328125 C 11.195312 -3.992188 11.25 -3.597656 11.25 -3.140625 C 11.25 -2.054688 10.992188 -1.257812 10.484375 -0.75 C 9.984375 -0.25 9.191406 0 8.109375 0 L 1 0 Z M 8.28125 -3.640625 C 8.28125 -4.304688 7.945312 -4.640625 7.28125 -4.640625 L 3.96875 -4.640625 L 3.96875 -2.3125 L 7.28125 -2.3125 C 7.945312 -2.3125 8.28125 -2.644531 8.28125 -3.3125 Z M 7.78125 -8.28125 C 7.78125 -8.9375 7.445312 -9.265625 6.78125 -9.265625 L 3.96875 -9.265625 L 3.96875 -6.953125 L 6.78125 -6.953125 C 7.445312 -6.953125 7.78125 -7.28125 7.78125 -7.9375 Z M 7.78125 -8.28125 "/></g></g></g><g fill="#737373" fill-opacity="1"><g transform="translate(22.893307, 16.029445)"><g><path d="M -0.328125 -11.578125 L 2.8125 -11.578125 L 5.546875 -5.953125 L 8.28125 -11.578125 L 11.421875 -11.578125 L 7.03125 -3.0625 L 7.03125 0 L 4.046875 0 L 4.046875 -3.0625 Z M -0.328125 -11.578125 "/></g></g></g><g fill="#737373" fill-opacity="1"><g transform="translate(44.395306, 16.029445)"><g/></g></g><g fill="#737373" fill-opacity="1"><g transform="translate(59.779687, 16.029445)"><g><path d="M 8.4375 -8.4375 C 8.4375 -9.101562 8.109375 -9.4375 7.453125 -9.4375 L 4.640625 -9.4375 C 3.972656 -9.4375 3.640625 -9.101562 3.640625 -8.4375 L 3.640625 -3.140625 C 3.640625 -2.484375 3.972656 -2.15625 4.640625 -2.15625 L 7.453125 -2.15625 C 8.109375 -2.15625 8.4375 -2.484375 8.4375 -3.140625 Z M 11.421875 -3.140625 C 11.421875 -1.984375 11.15625 -1.140625 10.625 -0.609375 C 10.101562 -0.0859375 9.265625 0.171875 8.109375 0.171875 L 3.96875 0.171875 C 2.8125 0.171875 1.96875 -0.0859375 1.4375 -0.609375 C 0.914062 -1.140625 0.65625 -1.984375 0.65625 -3.140625 L 0.65625 -8.4375 C 0.65625 -9.59375 0.914062 -10.429688 1.4375 -10.953125 C 1.96875 -11.484375 2.8125 -11.75 3.96875 -11.75 L 8.109375 -11.75 C 9.265625 -11.75 10.101562 -11.484375 10.625 -10.953125 C 11.15625 -10.429688 11.421875 -9.59375 11.421875 -8.4375 Z M 11.421875 -3.140625 "/></g></g></g><g fill="#737373" fill-opacity="1"><g transform="translate(82.273727, 16.029445)"><g><path d="M 0.640625 -2.40625 C 3.660156 -2.238281 5.707031 -2.15625 6.78125 -2.15625 C 7.039062 -2.15625 7.242188 -2.226562 7.390625 -2.375 C 7.535156 -2.519531 7.609375 -2.722656 7.609375 -2.984375 L 7.609375 -4.46875 L 3.8125 -4.46875 C 2.644531 -4.46875 1.800781 -4.726562 1.28125 -5.25 C 0.757812 -5.78125 0.5 -6.625 0.5 -7.78125 L 0.5 -8.28125 C 0.5 -9.4375 0.757812 -10.273438 1.28125 -10.796875 C 1.800781 -11.316406 2.644531 -11.578125 3.8125 -11.578125 L 9.609375 -11.578125 L 9.609375 -9.265625 L 4.46875 -9.265625 C 3.800781 -9.265625 3.46875 -8.9375 3.46875 -8.28125 L 3.46875 -7.9375 C 3.46875 -7.28125 3.800781 -6.953125 4.46875 -6.953125 L 7.453125 -6.953125 C 8.523438 -6.953125 9.316406 -6.695312 9.828125 -6.1875 C 10.335938 -5.675781 10.59375 -4.882812 10.59375 -3.8125 L 10.59375 -2.984375 C 10.59375 -1.898438 10.335938 -1.101562 9.828125 -0.59375 C 9.316406 -0.0820312 8.523438 0.171875 7.453125 0.171875 C 6.890625 0.171875 6.289062 0.15625 5.65625 0.125 L 4.140625 0.0625 C 3.015625 0.0078125 1.847656 -0.0664062 0.640625 -0.171875 Z M 0.640625 -2.40625 "/></g></g></g><g fill="#737373" fill-opacity="1"><g transform="translate(103.775727, 16.029445)"><g><path d="M 10.171875 0 L 1 0 L 1 -11.578125 L 10.171875 -11.578125 L 10.171875 -9.265625 L 3.96875 -9.265625 L 3.96875 -7.03125 L 8.859375 -7.03125 L 8.859375 -4.71875 L 3.96875 -4.71875 L 3.96875 -2.3125 L 10.171875 -2.3125 Z M 10.171875 0 "/></g></g></g><g fill="#737373" fill-opacity="1"><g transform="translate(124.699028, 16.029445)"><g><path d="M 6.453125 0 L 0.5 0 L 0.5 -2.3125 L 1.984375 -2.3125 L 1.984375 -9.265625 L 0.5 -9.265625 L 0.5 -11.578125 L 6.453125 -11.578125 L 6.453125 -9.265625 L 4.96875 -9.265625 L 4.96875 -2.3125 L 6.453125 -2.3125 Z M 6.453125 0 "/></g></g></g><g fill="#737373" fill-opacity="1"><g transform="translate(142.067489, 16.029445)"><g><path d="M 6.625 0 L 3.640625 0 L 3.640625 -9.265625 L 0.171875 -9.265625 L 0.171875 -11.578125 L 10.09375 -11.578125 L 10.09375 -9.265625 L 6.625 -9.265625 Z M 6.625 0 "/></g></g></g></g></g></g></g></g></svg>